<svg width="32" height="32" viewBox="0 0 32 32" fill="none" xmlns="http://www.w3.org/2000/svg">
<path fill-rule="evenodd" clip-rule="evenodd" d="M30.7473 9.7937C29.2081 6.13634 26.3648 3.1814 22.7694 1.50258C19.174 -0.176247 15.083 -0.459164 11.2907 0.708751C7.49846 1.87667 4.27547 4.41208 2.24749 7.82275C0.219509 11.2334 -0.468754 15.276 0.316324 19.1656C1.1014 23.0552 3.3038 26.5143 6.49594 28.8713C9.68807 31.2284 13.6422 32.3152 17.5906 31.9207C21.5389 31.5262 25.1999 29.6787 27.8626 26.7367C30.5254 23.7948 31.9999 19.9683 32 16.0002C32.003 13.8683 31.5769 11.7576 30.7473 9.7937ZM2.42216 18.2675L2.39232 18.0689C2.30234 17.4651 2.25216 16.856 2.24209 16.2457L2.23695 15.9313L2.5482 15.973C6.78286 16.5376 10.908 17.7382 14.7843 19.5341L14.9407 19.6051V22.18L14.5508 21.9882C10.7934 20.1379 6.76782 18.8916 2.62229 18.2953L2.42216 18.2675ZM4.21765 22.942L4.0983 22.9173L4.03759 22.8113C3.67365 22.1719 3.36157 21.5044 3.10434 20.8152L2.94023 20.3768L3.40325 20.4561C7.38051 21.1344 11.2257 22.4366 14.7967 24.3146L14.9407 24.3897V27.0464L14.5374 26.8185C11.3188 25.0001 7.83742 23.6924 4.21765 22.942ZM14.5986 29.7098C11.6633 29.4082 8.90317 28.169 6.72723 26.1759L5.8408 25.3672L6.98755 25.7186C9.7169 26.5536 12.3311 27.7266 14.7694 29.2103L15.7896 29.8317L14.5986 29.7098ZM16.1826 17.8652L16.1271 17.892H15.9162L15.8606 17.8652L15.8534 17.8616C11.6917 15.8761 7.24332 14.5585 2.67168 13.9573L2.39283 13.9203L2.44068 13.6435C2.99555 10.4437 4.66232 7.54258 7.1471 5.4516C9.63189 3.36062 12.7751 2.21405 16.0226 2.21405C19.2702 2.21405 22.4134 3.36062 24.8982 5.4516C27.383 7.54258 29.0497 10.4437 29.6046 13.6435L29.6525 13.9203L29.3736 13.9573C24.8029 14.5583 20.3554 15.8753 16.1945 17.8601L16.1826 17.8652ZM25.316 26.1759C23.1401 28.169 20.38 29.4082 17.4446 29.7098L16.2562 29.8317L17.2764 29.2103C19.7139 27.7266 22.3272 26.5534 25.0557 25.7181L26.2024 25.3667L25.316 26.1759ZM28.9379 20.8146C28.6807 21.5039 28.3686 22.1714 28.0046 22.8108L27.9444 22.9168L27.8251 22.9415C24.2051 23.6922 20.7235 25.0002 17.5048 26.819L17.1015 27.0469V24.3897L17.2461 24.3136C20.817 22.4356 24.6622 21.1334 28.6395 20.455L29.1025 20.3758L28.9379 20.8146ZM29.8001 16.2457C29.7897 16.8559 29.7392 17.4648 29.6489 18.0684L29.619 18.267L29.4204 18.2958C25.2746 18.8926 21.2489 20.1394 17.4915 21.9902L17.1015 22.1821V19.6051L17.2558 19.5326C21.1332 17.7369 25.2594 16.5368 29.495 15.973L29.8068 15.9313L29.8001 16.2457Z" fill="#017C6E"/>
</svg>
